<?xml version="1.0" encoding="UTF-8"?>
<svg version="1.1" xmlns="http://www.w3.org/2000/svg" width="512" height="512">
<path d="M0 0 C3.48209317 0.00478262 6.96413382 -0.00782269 10.44620943 -0.01801741 C17.24734619 -0.03511307 24.04839018 -0.03606464 30.84954283 -0.03080451 C36.38484915 -0.02674369 41.92012832 -0.02822891 47.45543337 -0.03355277 C48.24679511 -0.03430119 49.03815685 -0.03504961 49.85349925 -0.03582071 C51.46177608 -0.03735238 53.07005291 -0.03889073 54.67832974 -0.04043568 C69.72213716 -0.05412771 84.76589241 -0.04874665 99.80969861 -0.03725047 C113.53012424 -0.02732494 127.25041487 -0.04025286 140.97081968 -0.06418466 C155.10563188 -0.08865088 169.24038141 -0.09816492 183.37521434 -0.09153193 C191.29210524 -0.08805592 199.2088925 -0.09016367 207.12576723 -0.10778296 C213.86618255 -0.12259964 220.60642124 -0.12301839 227.34683344 -0.10571205 C230.77628414 -0.09727601 234.20542062 -0.09486733 237.63485384 -0.1103636 C256.2259315 -0.17678101 274.3338109 0.71495553 291.83774996 7.59433305 C292.60812593 7.88912553 293.37850191 8.18391801 294.17222261 8.4876436 C325.37503496 20.86426764 350.65048267 45.68840576 364.20884371 76.31210649 C365.74160768 79.96519395 367.11248745 83.66083623 368.40024996 87.40683305 C368.63075045 88.06925004 368.86125093 88.73166704 369.09873629 89.41415727 C374.33453998 105.60034731 374.53369363 121.45944698 374.49458301 138.31908309 C374.48980039 141.80117627 374.5024057 145.28321691 374.51260042 148.76529253 C374.52969608 155.56642928 374.53064765 162.36747328 374.52538752 169.16862592 C374.5213267 174.70393225 374.52281192 180.23921141 374.52813578 185.77451646 C374.5288842 186.5658782 374.52963262 187.35723994 374.53040372 188.17258234 C374.53193539 189.78085918 374.53347374 191.38913601 374.53501869 192.99741283 C374.54871072 208.04122025 374.54332966 223.08497551 374.53183348 238.12878171 C374.52190795 251.84920733 374.53483587 265.56949796 374.55876767 279.28990278 C374.58323389 293.42471498 374.59274793 307.55946451 374.58611494 321.69429743 C374.58263893 329.61118834 374.58474668 337.52797559 374.60236597 345.44485033 C374.61718265 352.18526564 374.6176014 358.92550433 374.60029506 365.66591653 C374.59185902 369.09536723 374.58945034 372.52450372 374.60494661 375.95393693 C374.67136403 394.5450146 373.77962748 412.652894 366.90024996 430.15683305 C366.60545748 430.92720903 366.310665 431.69758501 366.00693941 432.49130571 C356.12099749 457.41483812 337.95972406 479.38101687 315.08774996 493.40683305 C314.11579683 494.02816118 313.14384371 494.6494893 312.14243746 495.28964555 C293.62847311 506.69424759 272.09269926 512.55767682 250.44695711 512.55400407 C249.27902437 512.55768076 248.11109164 512.56135745 246.907767 512.56514555 C243.67853506 512.57423348 240.44933301 512.57887353 237.22009051 512.58153486 C233.73171959 512.58545437 230.24336316 512.5950317 226.75500154 512.60374773 C218.3350592 512.6234691 209.91511573 512.63357429 201.49515608 512.64247552 C197.52142385 512.6468668 193.54769293 512.65223154 189.57396173 512.65746439 C176.34846476 512.67447475 163.12296859 512.6889652 149.89746237 512.69621313 C146.46878543 512.69812276 143.04010851 512.70004312 139.6114316 512.70199907 C138.75933926 512.70248281 137.90724693 512.70296655 137.02933361 512.70346495 C123.25014728 512.71175136 109.47104814 512.73706559 95.69189981 512.76957975 C81.51670436 512.80275317 67.34155304 512.82067126 53.1663186 512.82385737 C45.21909737 512.82601332 37.2720032 512.83462652 29.32482004 512.86031854 C22.55126623 512.88216682 15.77787031 512.89000744 9.00428525 512.88035176 C5.55665674 512.87584706 2.109353 512.87746513 -1.33822966 512.8971132 C-22.78894123 512.99926867 -42.155067 511.08922782 -61.91225004 502.40683305 C-62.56644926 502.12356157 -63.22064848 501.84029008 -63.89467192 501.54843462 C-93.98974488 488.26256094 -117.69643593 462.6852702 -129.78334379 432.21054399 C-130.63388989 429.95385314 -131.44074075 427.68745259 -132.22475004 425.40683305 C-132.57050077 424.41320756 -132.57050077 424.41320756 -132.92323637 423.39950883 C-138.15904006 407.2133188 -138.35819372 391.35421913 -138.31908309 374.49458301 C-138.31430048 371.01248984 -138.32690578 367.53044919 -138.33710051 364.04837358 C-138.35419617 357.24723682 -138.35514773 350.44619283 -138.3498876 343.64504018 C-138.34582678 338.10973386 -138.347312 332.5744547 -138.35263586 327.03914964 C-138.35338428 326.2477879 -138.3541327 325.45642616 -138.35490381 324.64108376 C-138.35643548 323.03280693 -138.35797382 321.4245301 -138.35951877 319.81625327 C-138.3732108 304.77244585 -138.36782974 289.7286906 -138.35633356 274.6848844 C-138.34640804 260.96445877 -138.35933595 247.24416814 -138.38326775 233.52376333 C-138.40773398 219.38895113 -138.41724801 205.2542016 -138.41061503 191.11936867 C-138.40713902 183.20247777 -138.40924677 175.28569051 -138.42686605 167.36881578 C-138.44168273 160.62840046 -138.44210148 153.88816178 -138.42479514 147.14774957 C-138.41635911 143.71829887 -138.41395042 140.28916239 -138.4294467 136.85972917 C-138.49586411 118.26865151 -137.60412757 100.16077211 -130.72475004 82.65683305 C-130.42995756 81.88645708 -130.13516508 81.1160811 -129.8314395 80.3223604 C-117.45481545 49.11954805 -92.63067734 23.84410034 -62.0069766 10.2857393 C-58.35388915 8.75297533 -54.65824686 7.38209556 -50.91225004 6.09433305 C-49.91862455 5.74858232 -49.91862455 5.74858232 -48.90492582 5.39584672 C-32.71873579 0.16004303 -16.85963612 -0.03911062 0 0 Z " fill="#4F7CD1" transform="translate(137.91225004196167,-0.40683305263519287)"/>
<path d="M0 0 C-0.28004883 1.06565186 -0.56009766 2.13130371 -0.84863281 3.22924805 C-5.06927947 21.03028064 -4.6733151 39.02965637 -4.73822021 57.20910645 C-4.75806361 61.59460068 -4.79999862 65.97988435 -4.83984375 70.36523438 C-4.91434211 78.91009991 -4.9651139 87.45488114 -5 96 C-5.97599655 96.00546844 -5.97599655 96.00546844 -6.97171021 96.01104736 C-13.75298591 96.05290572 -20.53358692 96.12227536 -27.31445312 96.20751953 C-29.84400683 96.23571932 -32.37364849 96.25693873 -34.90332031 96.27099609 C-38.54277546 96.29243829 -42.18117415 96.3390986 -45.8203125 96.390625 C-46.94865509 96.39185364 -48.07699768 96.39308228 -49.23953247 96.39434814 C-55.27290399 96.50651538 -59.39781331 96.67862164 -64 101 C-69.27140233 106.5036493 -68.56349119 112.66234262 -68.49609375 119.84375 C-68.49754898 121.08620483 -68.49900421 122.32865967 -68.50050354 123.60876465 C-68.4984228 126.90124455 -68.47742764 130.19295281 -68.44952393 133.48529053 C-68.43750996 135.49833083 -68.43913476 137.51086672 -68.44604492 139.52392578 C-68.45865176 143.40159899 -68.44995335 147.27860086 -68.43359375 151.15625 C-68.43652939 152.35326538 -68.43946503 153.55028076 -68.44248962 154.78356934 C-68.39289528 162.82425554 -68.39289528 162.82425554 -65 170 C-48.36795857 185.00940324 -34.41593924 175.44498228 -5 176 C-5 239.36 -5 302.72 -5 368 C-40.02125 368.12375 -40.02125 368.12375 -75.75 368.25 C-83.08573242 368.28641602 -90.42146484 368.32283203 -97.97949219 368.36035156 C-107.02978516 368.37841797 -107.02978516 368.37841797 -111.28448486 368.3817749 C-114.21706584 368.38545857 -117.1493487 368.4002728 -120.08184814 368.42230225 C-142.94820042 368.58635596 -163.83337741 367.30178016 -185 358 C-185.65419922 357.71672852 -186.30839844 357.43345703 -186.98242188 357.14160156 C-217.07749484 343.85572789 -240.78418589 318.27843714 -252.87109375 287.80371094 C-254.83046327 282.60506117 -256.486645 277.34399649 -258 272 C-258.34160156 270.82179688 -258.68320312 269.64359375 -259.03515625 268.4296875 C-270.80420372 218.61650982 -252.68521173 157.84867001 -226.81640625 115.4296875 C-219.12879372 103.1887465 -210.5750213 91.8170301 -201 81 C-200.21753906 80.10667969 -199.43507812 79.21335937 -198.62890625 78.29296875 C-190.39117799 68.99875541 -181.75644597 60.69083358 -172 53 C-171.00097656 52.195625 -170.00195312 51.39125 -168.97265625 50.5625 C-160.7337692 43.99997347 -152.05391854 38.36901354 -143 33 C-142.31341309 32.5875 -141.62682617 32.175 -140.91943359 31.75 C-121.85573051 20.37664183 -101.50728647 12.37464916 -80 7 C-79.2565332 6.80712402 -78.51306641 6.61424805 -77.74707031 6.41552734 C-52.0600808 -0.19348499 -26.33146207 -0.41789168 0 0 Z " fill="#3764B9" transform="translate(261,144)"/>
<path d="M0 0 C2.89670446 0.01617583 5.79308781 0.00600229 8.68980122 -0.00411892 C11.50120661 -0.01108179 14.3124195 -0.00328589 17.12380028 0.00913811 C19.09683012 0.01577987 21.06988708 0.01153312 23.04292297 0.0070343 C24.24245102 0.01971848 25.44197906 0.03240265 26.67785645 0.04547119 C27.72641312 0.05087418 28.77496979 0.05627716 29.8553009 0.06184387 C34.01915412 0.60255677 37.40384888 2.10823699 40.48522949 4.98468018 C43.81659857 9.34108589 44.9643107 11.37333076 45.00183105 16.81378174 C45.0114386 17.93544739 45.02104614 19.05711304 45.03094482 20.21276855 C45.03731964 22.03925934 45.03731964 22.03925934 45.04382324 23.90264893 C45.04952332 25.15076355 45.05522339 26.39887817 45.06109619 27.68481445 C45.07055802 30.33119351 45.07744843 32.97745886 45.08093262 35.62384033 C45.08640411 39.00431383 45.11040228 42.38438184 45.13890457 45.76472855 C45.16209009 48.99817108 45.16398522 52.23163491 45.16882324 55.46514893 C45.18117004 56.67471252 45.19351685 57.88427612 45.20623779 59.13049316 C45.18857021 65.80800902 45.05431253 70.92626451 40.34069824 76.09405518 C35.85026683 79.59051089 32.97512322 80.57160178 27.36291504 80.59136963 C25.68052986 80.60192131 25.68052986 80.60192131 23.9641571 80.61268616 C22.75165787 80.61685043 21.53915863 80.62101471 20.28991699 80.62530518 C17.72936189 80.64850238 15.16881498 80.67261967 12.60827637 80.6975708 C8.56603989 80.73394825 4.52395594 80.76372184 0.48156738 80.77545166 C-3.41602216 80.79092112 -7.312727 80.83112644 -11.21008301 80.87530518 C-12.41650955 80.87339676 -13.6229361 80.87148834 -14.86592102 80.86952209 C-23.26151101 80.95884337 -23.26151101 80.95884337 -30.15930176 85.44952393 C-33.65174166 89.91352688 -34.66382962 92.81757729 -34.7052002 98.46466064 C-34.72070671 99.47546944 -34.72070671 99.47546944 -34.73652649 100.50669861 C-34.76581603 102.7144508 -34.76745059 104.92128074 -34.76867676 107.12921143 C-34.78366792 108.66765069 -34.80039704 110.20607392 -34.81878662 111.74447632 C-34.86236793 115.77875532 -34.88243852 119.81281726 -34.89752197 123.84729004 C-34.91712654 127.97003974 -34.95909269 132.09255615 -34.99914551 136.21514893 C-35.07434758 144.29321272 -35.12469928 152.37118466 -35.15930176 160.44952393 C-34.3627417 160.43842087 -33.56618164 160.42731781 -32.7454834 160.4158783 C-25.21336398 160.31540665 -17.6815726 160.23942334 -10.1489563 160.19046307 C-6.2769496 160.16444502 -2.40549975 160.1291924 1.46618652 160.07232666 C5.20746275 160.01772452 8.94820572 159.98804486 12.68984985 159.97513771 C14.11235949 159.96594793 15.53484219 159.94800246 16.9571228 159.92087364 C25.13322111 159.77122125 31.55974351 159.76153166 37.84069824 165.44952393 C41.50490988 169.34274879 41.06439526 173.30012748 41.01452637 178.36846924 C40.728044 183.4462887 39.6812915 188.30431621 38.59069824 193.26202393 C38.12484957 195.45424329 37.66135555 197.64696418 37.20007324 199.84014893 C36.96868652 200.93778564 36.7372998 202.03542236 36.49890137 203.1663208 C35.86436897 206.33145123 35.31100058 209.49768089 34.79382324 212.68389893 C34.63172363 213.66640625 34.46962402 214.64891357 34.3026123 215.66119385 C34.00420326 217.50290759 33.71876342 219.34679093 33.44909668 221.19293213 C32.5030419 226.90602745 31.05104683 232.27050234 26.84069824 236.44952393 C8.31743959 245.71115325 -14.449669 240.44952393 -35.15930176 240.44952393 C-35.15930176 303.80952393 -35.15930176 367.16952393 -35.15930176 432.44952393 C-61.55930176 432.44952393 -87.95930176 432.44952393 -115.15930176 432.44952393 C-115.15930176 369.08952393 -115.15930176 305.72952393 -115.15930176 240.44952393 C-132.64930176 240.44952393 -150.13930176 240.44952393 -168.15930176 240.44952393 C-177.15930176 234.44952393 -177.15930176 234.44952393 -179.15930176 228.44952393 C-179.2673363 226.62584037 -179.31809904 224.79853074 -179.33630371 222.97174072 C-179.34913895 221.8501506 -179.36197418 220.72856049 -179.37519836 219.57298279 C-179.3825853 218.36048355 -179.38997223 217.14798431 -179.39758301 215.89874268 C-179.40565475 214.652043 -179.4137265 213.40534332 -179.42204285 212.12086487 C-179.43588283 209.48046147 -179.44689953 206.84018289 -179.45446777 204.19976807 C-179.46332936 201.4964139 -179.48420735 198.7935735 -179.51599121 196.09039307 C-179.55858937 192.1930181 -179.57482692 188.29632132 -179.58508301 184.39874268 C-179.60259109 183.19231613 -179.62009918 181.98588959 -179.63813782 180.74290466 C-179.62160102 174.34965521 -179.56019732 170.25758401 -175.15930176 165.44952393 C-170.9329394 161.72629994 -168.65451751 160.32275801 -163.0670166 160.33599854 C-161.47559341 160.33611183 -161.47559341 160.33611183 -159.85202026 160.33622742 C-158.12853867 160.34396935 -158.12853867 160.34396935 -156.37023926 160.35186768 C-154.60989853 160.3539901 -154.60989853 160.3539901 -152.81399536 160.3561554 C-149.0540719 160.36176703 -145.29420731 160.37432154 -141.53430176 160.38702393 C-138.99003178 160.39203742 -136.44576088 160.39660059 -133.90148926 160.4006958 C-127.65407323 160.41174025 -121.4066917 160.42848975 -115.15930176 160.44952393 C-115.17595634 159.11339554 -115.17595634 159.11339554 -115.19294739 157.75027466 C-115.29418946 149.25128147 -115.36978515 140.75249801 -115.41836262 132.25303459 C-115.44417854 127.88597236 -115.47904561 123.51941861 -115.53649902 119.15264893 C-115.86278374 93.66319042 -115.76327717 69.93103673 -102.15930176 47.44952393 C-101.47996582 46.3228833 -100.80062988 45.19624268 -100.10070801 44.03546143 C-85.920721 22.23210525 -64.15635141 7.27119049 -38.75666809 1.75932312 C-26.02365886 -0.65208341 -12.90935843 -0.10277096 0 0 Z " fill="#FEFEFE" transform="translate(371.1593017578125,79.55047607421875)"/>
<path d="M0 0 C0.33 0 0.66 0 1 0 C1.09176643 33.41897614 1.16214537 66.83792067 1.20426132 100.25699504 C1.20926351 104.21185757 1.21444086 108.16671986 1.21972656 112.12158203 C1.2207758 112.90884874 1.22182505 113.69611544 1.22290608 114.50723872 C1.24026142 127.21665701 1.27177191 139.92600215 1.30861118 152.6353772 C1.3461568 165.69841256 1.36826447 178.76140989 1.37635398 191.82449698 C1.38181368 199.87040902 1.39899039 207.91611421 1.43166587 215.96196249 C1.4555201 222.1551678 1.45778581 228.34821889 1.45243073 234.54146385 C1.45352245 237.06479087 1.46136116 239.58812644 1.4768219 242.11140633 C1.58188305 260.15793653 0.48678451 277.76790114 -6.1875 294.75 C-6.48229248 295.52037598 -6.77708496 296.29075195 -7.08081055 297.08447266 C-16.96675246 322.00800506 -35.1280259 343.97418382 -58 358 C-59.45792969 358.93199219 -59.45792969 358.93199219 -60.9453125 359.8828125 C-96.39142665 381.71761882 -133.46446153 377 -175 377 C-175 313.64 -175 250.28 -175 185 C-148.27 184.505 -148.27 184.505 -121 184 C-112.76768786 180.12346607 -112.76768786 180.12346607 -109 173 C-107.94735583 169.18050988 -107.20418512 165.33465052 -106.5 161.4375 C-106.29205811 160.34501953 -106.08411621 159.25253906 -105.86987305 158.12695312 C-105.23193186 154.75382998 -104.61318617 151.3777037 -104 148 C-103.80873535 146.95473145 -103.6174707 145.90946289 -103.42041016 144.83251953 C-102.37050747 139.09107351 -102.37050747 139.09107351 -101.34375 133.34545898 C-100.37077117 127.85923323 -99.2429472 122.43173402 -98 117 C-97.37996094 116.85304688 -96.75992188 116.70609375 -96.12109375 116.5546875 C-74.31991063 111.03299046 -53.61743151 100.32731476 -38 84 C-37.34 84 -36.68 84 -36 84 C-35.62875 83.14148438 -35.62875 83.14148438 -35.25 82.265625 C-33.806706 79.64965463 -32.0900239 77.88481013 -30 75.75 C-17.33284176 61.8812946 -8.76617326 44.04495363 -4 26 C-3.71253906 24.93007812 -3.42507813 23.86015625 -3.12890625 22.7578125 C-1.23254226 15.19050357 -0.36955251 7.78608915 0 0 Z " fill="#1E4BA0" transform="translate(511,135)"/>
<path d="M0 0 C26.43402945 -2.18262628 55.53631379 10.59306945 75.6484375 27.08984375 C100.83579025 48.58921069 119.95650105 78.31285556 123 112 C125.08747733 149.10611512 116.4641726 184.13672081 91.3125 212.375 C88.27882457 215.66148171 85.24145474 218.916665 82 222 C81.35289062 222.64195312 80.70578125 223.28390625 80.0390625 223.9453125 C66.55149441 236.80555184 43.20516866 252 24 252 C24 254.31 24 256.62 24 259 C23.67 259 23.34 259 23 259 C22.94392578 258.11248047 22.94392578 258.11248047 22.88671875 257.20703125 C22.34470826 250.59934966 22.34470826 250.59934966 19 245 C12.33394108 239.79125148 5.2511165 240.39545625 -2.90234375 240.390625 C-4.34967383 240.3756277 -5.7969869 240.35889731 -7.24427795 240.34051514 C-11.03358793 240.29700239 -14.82266712 240.27687865 -18.61218262 240.26177979 C-22.48703569 240.24215023 -26.36164162 240.20018704 -30.23632812 240.16015625 C-37.82415205 240.08502868 -45.41187166 240.03463217 -53 240 C-53.09280748 231.10721205 -53.16381914 222.21459161 -53.20724869 213.32142448 C-53.22809606 209.19164765 -53.2563609 205.06220291 -53.30175781 200.93261719 C-53.34531833 196.94498571 -53.36915855 192.95767304 -53.37950897 188.96982193 C-53.38688213 187.4507966 -53.40128042 185.9317881 -53.42292023 184.41289902 C-53.45209175 182.27993239 -53.45595054 180.14827173 -53.45410156 178.01513672 C-53.46298401 176.8026828 -53.47186646 175.59022888 -53.48101807 174.34103394 C-52.73412778 169.15331653 -50.23952872 166.09196578 -46.375 162.6875 C-42.82010883 160.16165628 -40.96566808 159.87069328 -36.63574219 159.84228516 C-35.51407654 159.83202301 -34.39241089 159.82176086 -33.23675537 159.81118774 C-31.41026459 159.80023575 -31.41026459 159.80023575 -29.546875 159.7890625 C-26.98306657 159.7609904 -24.41926457 159.73232591 -21.85546875 159.703125 C-17.80228113 159.66071989 -13.74913266 159.62395161 -9.69580078 159.59863281 C-5.79177417 159.57359081 -1.88818118 159.52514261 2.015625 159.4765625 C3.2251886 159.47330963 4.4347522 159.47005676 5.68096924 159.46670532 C13.77481575 159.40285402 13.77481575 159.40285402 21 156 C24.15781361 152.58614744 26.0268565 150.06795075 25.96484375 145.29296875 C25.93559709 141.97138422 26.11065385 139.20677697 27 136 C29.23196114 133.9210362 31.43425216 132.81408216 34.171875 131.48046875 C39.17213501 128.86292932 42.99536056 124.92332696 47 121 C47.62777344 120.40832031 48.25554687 119.81664063 48.90234375 119.20703125 C61.43076391 106.3377017 66.3125 87.2526279 66.3125 69.82836914 C65.97281476 51.73048003 58.63377508 34.35726125 45.78125 21.6171875 C32.57200248 9.18713717 18.08640646 2.73907754 0 1 C0 0.67 0 0.34 0 0 Z " fill="#3764B9" transform="translate(389,0)"/>
<path d="M0 0 C1.299375 0.4125 2.59875 0.825 3.9375 1.25 C8.79731365 2.70586429 13.69175342 3.9487474 18.625 5.125 C19.32874756 5.29547852 20.03249512 5.46595703 20.75756836 5.64160156 C25.49101253 6.75197695 30.16683335 7.46780862 35 8 C35 8.33 35 8.66 35 9 C23.45 9 11.9 9 0 9 C0 6.03 0 3.06 0 0 Z " fill="#3663B8" transform="translate(336,503)"/>
</svg>
