<?xml version="1.0" encoding="UTF-8"?>
<svg version="1.1" xmlns="http://www.w3.org/2000/svg" width="512" height="512">
<path d="M0 0 C0.75078827 0.00182281 1.50157654 0.00364563 2.27511597 0.00552368 C13.22478781 0.05030076 23.61132095 0.50682038 34.25 3.3125 C35.57417385 3.62128635 36.89839408 3.92987388 38.22265625 4.23828125 C61.91173187 10.14441701 82.26913924 23.19740505 100.25 39.3125 C101.04019531 40.01761719 101.83039063 40.72273438 102.64453125 41.44921875 C113.67672246 51.8850753 122.287499 64.90100133 129.25 78.3125 C129.85457031 79.4571875 130.45914062 80.601875 131.08203125 81.78125 C134.71703746 88.93447901 137.33026535 96.23373656 139.5625 103.9375 C139.80500488 104.771604 140.04750977 105.60570801 140.29736328 106.46508789 C143.81385499 119.24747311 144.62302526 131.7593507 144.62060547 144.94360352 C144.62502156 147.63815612 144.66159134 150.33112144 144.69921875 153.02539062 C144.70508143 154.76301533 144.70905449 156.50064767 144.7109375 158.23828125 C144.73249405 159.42760002 144.73249405 159.42760002 144.75448608 160.64094543 C144.70019505 167.33122664 142.71059596 172.50458334 138.28515625 177.5546875 C137.63417969 178.09351563 136.98320312 178.63234375 136.3125 179.1875 C135.66410156 179.74179688 135.01570313 180.29609375 134.34765625 180.8671875 C130.08288044 183.80567363 126.58052675 184.56142836 121.4375 184.4375 C120.46167969 184.41945312 119.48585938 184.40140625 118.48046875 184.3828125 C117.74441406 184.35960937 117.00835937 184.33640625 116.25 184.3125 C116.3325 185.446875 116.415 186.58125 116.5 187.75 C116.50995518 193.35476703 114.47049935 198.84711752 110.69828796 203.03533936 C108.75236453 206.09493826 108.88874449 208.21320489 108.90942383 211.82519531 C108.90876671 212.79167496 108.90876671 212.79167496 108.90809631 213.77767944 C108.91017976 215.89897381 108.93348819 218.01946938 108.95703125 220.140625 C108.96262882 221.61463998 108.96689816 223.08866055 108.96989441 224.56268311 C108.98133059 228.43603006 109.01078686 232.30903776 109.04400635 236.18225098 C109.07473389 240.13707897 109.08840546 244.09196196 109.10351562 248.046875 C109.13565804 255.80223774 109.18683915 263.55732127 109.25 271.3125 C110.19609131 271.83561768 111.14218262 272.35873535 112.11694336 272.89770508 C113.37891801 273.60466903 114.64070837 274.31196203 115.90234375 275.01953125 C116.52347046 275.36181763 117.14459717 275.704104 117.7845459 276.0567627 C123.67510257 279.37612134 128.45642879 283.5555909 133.25 288.3125 C134.1575 289.17875 135.065 290.045 136 290.9375 C139.71275504 294.85651921 143.2527607 298.81664105 146.25 303.3125 C148.6938299 303.61080989 150.8861384 303.71096036 153.3326416 303.68431091 C154.07050132 303.68813548 154.80836104 303.69196004 155.56858015 303.6959005 C158.05437299 303.70522585 160.53961467 303.69316885 163.02539062 303.68139648 C164.80254346 303.68386313 166.57969484 303.68770016 168.35684204 303.69281006 C172.19176564 303.70116628 176.02654085 303.70032481 179.86146545 303.69262505 C185.930134 303.68106333 191.99861089 303.69318865 198.06726074 303.70924377 C213.14871043 303.74548216 228.23015626 303.75167267 243.31164551 303.74914551 C255.0166495 303.7474329 266.72149744 303.75461249 278.42645788 303.78912407 C284.4534489 303.80589127 290.48005927 303.80414508 296.50704861 303.78830135 C300.26825173 303.78248602 304.02927624 303.79327842 307.79044724 303.80854797 C309.52780956 303.81226077 311.26520238 303.80920518 313.00253677 303.79867744 C324.60535194 303.73308628 334.81266318 304.29142599 343.71875 312.609375 C349.61465386 319.16706399 352.49192105 326.2003726 352.51742554 335.04768372 C352.52195665 335.69982855 352.52648776 336.35197338 352.53115618 337.02388018 C352.54375297 339.19543681 352.54218292 341.36674111 352.54052734 343.53833008 C352.54651557 345.10095032 352.5533218 346.66356761 352.56088257 348.22618103 C352.57852026 352.46184802 352.58323702 356.69743415 352.58451414 360.93313432 C352.58593761 363.582244 352.59021094 366.23133325 352.59550858 368.88043785 C352.61400179 378.13034745 352.62218012 387.38019948 352.62060547 396.63012695 C352.61940441 405.23935012 352.64050158 413.84832245 352.6720928 422.45748216 C352.69828329 429.85981763 352.7089716 437.26207131 352.70769465 444.66445273 C352.70718581 449.08071606 352.71282554 453.49675641 352.73405075 457.9129734 C352.7534799 462.06880863 352.75352593 466.22420923 352.73901749 470.3800602 C352.73693404 471.90015806 352.74160256 473.42028347 352.7537384 474.94033432 C352.81493686 483.14059534 352.57467012 490.11299595 348.25 497.3125 C347.78078125 498.12203125 347.3115625 498.9315625 346.828125 499.765625 C341.8665219 506.47838214 336.22796159 509.95980109 328.25 512.3125 C325.41201943 512.56549966 325.41201943 512.56549966 322.41435528 512.56976891 C321.26540553 512.5762178 320.11645578 512.58266669 318.93268937 512.589311 C317.68007445 512.5862138 316.42745954 512.5831166 315.1368866 512.57992554 C313.7851854 512.58366383 312.43348636 512.58826606 311.08179075 512.59365618 C307.37298128 512.60587951 303.66426207 512.60562651 299.95543706 512.60326743 C295.95327389 512.6028591 291.95113958 512.61389999 287.94898987 512.62338257 C280.11011809 512.63998978 272.2712764 512.64549199 264.43238851 512.64660732 C258.06008299 512.64755791 251.68778738 512.65166875 245.315485 512.65800858 C227.24581051 512.67562008 209.17615976 512.68484757 191.10647663 512.68334763 C190.13249901 512.68326772 189.15852139 512.6831878 188.1550293 512.68310547 C187.17986145 512.68302371 186.20469361 512.68294195 185.19997523 512.68285771 C169.39573863 512.68204479 153.59159732 512.70118409 137.78738829 512.7293822 C121.55677997 512.75811243 105.32621813 512.77192243 89.09558374 512.77019465 C79.98449543 512.76953081 70.87350703 512.7750207 61.76244164 512.79655075 C54.00516396 512.81476435 46.24803149 512.81910841 38.49074169 512.8055319 C34.53413773 512.79900318 30.57781233 512.79888138 26.62123489 512.8162384 C22.99585442 512.83197871 19.37097316 512.82909621 15.74560479 512.81167014 C13.81990188 512.80715417 11.89418342 512.82225011 9.96854085 512.83814943 C-0.63839016 512.7538129 -8.99674022 509.69333245 -16.75 502.3125 C-22.19678947 495.40033062 -24.07916112 488.6222001 -23.875 479.9375 C-23.86597656 479.20144531 -23.85695312 478.46539062 -23.84765625 477.70703125 C-23.82430144 475.9087112 -23.78843836 474.11056089 -23.75 472.3125 C-25.68653191 472.32582367 -25.68653191 472.32582367 -27.66218567 472.3394165 C-39.8583943 472.42067831 -52.05454764 472.48054988 -64.25096607 472.51974869 C-70.52053467 472.54057901 -76.78988383 472.56881372 -83.05932617 472.61425781 C-89.11531911 472.65787753 -95.17110163 472.68167134 -101.22723961 472.69200897 C-103.53199257 472.6993714 -105.83673466 472.71374822 -108.14139748 472.73542023 C-111.3820299 472.764668 -114.62180462 472.76844702 -117.86254883 472.76660156 C-118.80482834 472.78098267 -119.74710785 472.79536377 -120.71794128 472.81018066 C-131.70877033 472.74292683 -140.81431716 468.88815186 -148.75 461.3125 C-160.77349587 448.71759046 -160.35144644 434.91591 -160.28125 418.48828125 C-160.28394975 416.25546602 -160.28783618 414.02265194 -160.29284668 411.7898407 C-160.29872503 407.12060298 -160.29023641 402.45167252 -160.27148438 397.7824707 C-160.2487627 391.83943433 -160.26178602 385.89712342 -160.28577423 379.95411396 C-160.30033401 375.34428089 -160.29557875 370.73461538 -160.28526306 366.12477684 C-160.28262035 363.93583271 -160.28577761 361.74687268 -160.29518127 359.55794716 C-160.38692001 332.19305901 -153.28790621 308.10186409 -133.78125 288.140625 C-127.55395875 282.12035806 -120.297546 277.00468991 -112.53393555 273.17773438 C-111.82262985 272.82594116 -111.11132416 272.47414795 -110.37846375 272.11169434 C-109.84107071 271.84796021 -109.30367767 271.58422607 -108.75 271.3125 C-108.63388858 262.82815186 -108.54517576 254.34413849 -108.49093914 245.85919094 C-108.46490133 241.91878023 -108.42961186 237.97891511 -108.37280273 234.03881836 C-108.31827208 230.23270915 -108.28853575 226.42712301 -108.27561378 222.62065315 C-108.26641133 221.17219883 -108.24844065 219.7237715 -108.22134972 218.27554131 C-108.07618342 210.18991393 -108.01104556 204.47208778 -113.75 198.3125 C-115.89949855 193.50171753 -115.9284833 189.48851559 -115.75 184.3125 C-116.45125 184.35890625 -117.1525 184.4053125 -117.875 184.453125 C-124.45498554 184.70345054 -129.40231679 184.36274952 -134.75 180.3125 C-140.09305387 175.2545498 -143.50422317 170.86479442 -144.0246582 163.34277344 C-144.04456218 161.78591017 -144.05256439 160.22886447 -144.05078125 158.671875 C-144.05506638 157.83142639 -144.0593515 156.99097778 -144.06376648 156.12506104 C-144.06950163 154.34314876 -144.07001604 152.56121308 -144.06567383 150.77929688 C-144.06255882 148.11284742 -144.08582387 145.44755871 -144.11132812 142.78125 C-144.25118396 105.1039114 -129.72547968 72.17957892 -104.75 44.3125 C-104.04488281 43.52230469 -103.33976562 42.73210938 -102.61328125 41.91796875 C-92.1774247 30.88577754 -79.16149867 22.275001 -65.75 15.3125 C-64.03296875 14.40564453 -64.03296875 14.40564453 -62.28125 13.48046875 C-55.12802099 9.84546254 -47.82876344 7.23223465 -40.125 5 C-39.290896 4.75749512 -38.45679199 4.51499023 -37.59741211 4.26513672 C-25.13875088 0.83770294 -12.85396289 -0.06480333 0 0 Z M-82.75 47.3125 C-83.57113281 47.98023437 -84.39226562 48.64796875 -85.23828125 49.3359375 C-91.19803323 54.37959635 -95.99167323 60.14366922 -100.75 66.3125 C-101.430625 67.16585937 -102.11125 68.01921875 -102.8125 68.8984375 C-119.2771114 90.3152953 -127.06820352 117.58039644 -127.75 144.3125 C-127.77578125 145.00424316 -127.8015625 145.69598633 -127.828125 146.40869141 C-127.90560627 148.56412339 -127.95732886 150.71861913 -128 152.875 C-128.02578125 154.15503906 -128.0515625 155.43507812 -128.078125 156.75390625 C-127.71980726 160.63994745 -126.80780794 163.01706055 -124.75 166.3125 C-121.41716197 168.19256248 -119.6525505 168.3125 -115.75 168.3125 C-115.65203125 167.61125 -115.5540625 166.91 -115.453125 166.1875 C-114.34074895 159.12966575 -112.98341365 152.54591365 -107.75 147.3125 C-107.4451358 145.28215001 -107.4451358 145.28215001 -107.4765625 142.9375 C-107.45891846 142.04361572 -107.44127441 141.14973145 -107.4230957 140.22875977 C-107.40722412 139.26639404 -107.39135254 138.30402832 -107.375 137.3125 C-106.39364686 106.97459797 -94.23460088 80.8894504 -72.4609375 59.71875 C-52.39629128 41.90920811 -26.79154596 32.90030809 -0.1875 32.9375 C0.47130157 32.93804382 1.13010315 32.93858765 1.80886841 32.93914795 C12.76134998 32.9806051 22.8449326 33.85729187 33.25 37.3125 C33.8992041 37.52680664 34.5484082 37.74111328 35.21728516 37.96191406 C62.96488263 47.4670746 84.58394135 66.96808166 97.49902344 93.21801758 C103.10086701 105.07430528 107.08424127 117.46109268 107.41015625 130.63671875 C107.43754883 131.60794678 107.46494141 132.5791748 107.49316406 133.57983398 C107.53851586 135.53075983 107.5609357 137.48238781 107.55761719 139.43383789 C107.69136235 146.08765978 108.96518172 149.22221511 113.25 154.3125 C115.20769367 158.91308011 115.7396381 163.37900161 116.25 168.3125 C121.32311998 167.93688369 121.32311998 167.93688369 125.625 165.4375 C132.43955434 156.5261597 127.96111211 135.58190857 126.65673828 125.04785156 C123.09384533 101.08707568 112.48441748 79.8725688 97.25 61.3125 C96.58097656 60.48878906 95.91195312 59.66507813 95.22265625 58.81640625 C90.1775968 52.86344244 84.41919694 48.06456367 78.25 43.3125 C77.38503906 42.631875 76.52007812 41.95125 75.62890625 41.25 C28.20403958 5.17045804 -37.85834125 10.11482325 -82.75 47.3125 Z M-68.3359375 79.03125 C-82.00325239 94.89093281 -91.00551541 115.28358135 -90.75 136.3125 C-51.58080094 136.63400498 -12.00988706 133.28419119 20.28198242 108.36035156 C23.74776606 105.80515329 26.7013544 104.53693535 31.06469727 104.80517578 C35.70990561 105.88357405 39.57241697 108.541944 43.5625 111.0625 C44.5122168 111.64652588 45.46193359 112.23055176 46.44042969 112.83227539 C48.40777599 114.04560304 50.3704926 115.26646813 52.32861328 116.49462891 C55.144584 118.24690351 57.98551441 119.94783544 60.83984375 121.63671875 C62.56058469 122.67333655 64.28066833 123.71104646 66 124.75 C66.80348877 125.22083008 67.60697754 125.69166016 68.43481445 126.17675781 C69.17304443 126.63276367 69.91127441 127.08876953 70.671875 127.55859375 C71.31737305 127.94716553 71.96287109 128.3357373 72.62792969 128.73608398 C74.25 130.3125 74.25 130.3125 76.25 136.3125 C81.2 136.3125 86.15 136.3125 91.25 136.3125 C92.72097979 115.718783 81.75211986 94.20100387 68.63232422 79.03417969 C52.12087628 60.62416432 29.64564644 49.96700051 5 48.375 C-23.35578241 47.23733424 -48.96342642 58.66377612 -68.3359375 79.03125 Z M29.25 122.3125 C28.26902344 122.95316406 27.28804688 123.59382813 26.27734375 124.25390625 C8.05073271 136.00602381 -11.18736606 144.03477489 -32.4375 148.625 C-33.11135742 148.77219482 -33.78521484 148.91938965 -34.47949219 149.07104492 C-42.80932743 150.73021607 -51.31073939 151.42845221 -59.75 152.3125 C-59.80002947 158.30410594 -59.8360126 164.29558606 -59.85986328 170.28735352 C-59.86982288 172.31895063 -59.88339544 174.35053378 -59.90087891 176.38208008 C-60.04326181 193.37171073 -59.74524201 208.47975759 -52.75 224.3125 C-48.56935528 224.51094229 -44.39123001 224.65571495 -40.20727539 224.75195312 C-38.7858912 224.79207871 -37.36483514 224.84659912 -35.94458008 224.91601562 C-27.83493965 225.65676014 -27.83493965 225.65676014 -20.78271484 222.59716797 C-19.43925337 220.51755192 -19.43925337 220.51755192 -18.59838867 218.32568359 C-16.90917542 214.31726561 -13.31648348 212.0808615 -9.48828125 210.203125 C-2.9847794 208.08786334 5.45242066 208.03682594 11.75 210.875 C18.34963166 214.93087642 21.94520616 220.3070599 23.84375 227.765625 C24.97644638 234.86676001 23.41215709 241.43868659 19.25 247.3125 C17.05742784 249.51918743 14.74721341 251.46063387 12.25 253.3125 C17.75904194 255.14884731 23.18537786 251.64778916 28.25 249.3125 C42.53125685 241.23069992 52.85997963 228.87803137 57.625 213.1875 C61.20449097 200.20795447 61.00008418 186.08834195 61.36914062 172.71875 C61.45630812 170.19999971 61.57932795 167.68223274 61.73828125 165.16699219 C63.10384003 151.4068 63.10384003 151.4068 58.43637085 139.01513672 C53.97658016 135.14827247 49.00218022 132.62337609 43.59306335 130.33666992 C40.21994661 128.86225622 37.19480537 126.99219787 34.0625 125.0625 C32.46049559 124.14205971 30.857316 123.22363322 29.25 122.3125 Z M-94.359375 156.6015625 C-99.39298476 162.13853324 -100.12315103 168.995154 -100.0625 176.1875 C-100.05686035 176.88786377 -100.0512207 177.58822754 -100.04541016 178.30981445 C-99.90216356 184.4332519 -99.43748338 190.02236883 -95.4609375 194.890625 C-89.55816324 200.38304597 -83.51144367 200.3125 -75.75 200.3125 C-75.75 184.4725 -75.75 168.6325 -75.75 152.3125 C-85.72676688 152.21968223 -85.72676688 152.21968223 -94.359375 156.6015625 Z M76.25 152.3125 C76.25 168.1525 76.25 183.9925 76.25 200.3125 C86.22676688 200.40531777 86.22676688 200.40531777 94.859375 196.0234375 C99.89298476 190.48646676 100.62315103 183.629846 100.5625 176.4375 C100.55686035 175.73713623 100.5512207 175.03677246 100.54541016 174.31518555 C100.40216356 168.1917481 99.93748338 162.60263117 95.9609375 157.734375 C90.05816324 152.24195403 84.01144367 152.3125 76.25 152.3125 Z M-87.75 216.3125 C-85.58385736 220.64478528 -85.03608821 221.43733641 -80.75 223.3125 C-77.42481323 223.84208564 -74.11046266 224.12327006 -70.75 224.3125 C-71.74 221.6725 -72.73 219.0325 -73.75 216.3125 C-78.37 216.3125 -82.99 216.3125 -87.75 216.3125 Z M74.25 216.3125 C73.54875 218.065625 72.8475 219.81875 72.125 221.625 C66.42345206 235.15033874 58.79136543 249.29171467 45.61328125 256.87109375 C43.90509058 258.35627329 43.90509058 258.35627329 44.16479492 261.40258789 C44.1929126 262.36285889 44.22103027 263.32312988 44.25 264.3125 C46.05803101 264.35008423 46.05803101 264.35008423 47.90258789 264.38842773 C52.39601354 264.48295665 56.88930091 264.58306439 61.38256836 264.68481445 C63.32329054 264.72799192 65.26404652 264.76967831 67.20483398 264.80981445 C70.00254477 264.86793566 72.80008814 264.93150716 75.59765625 264.99609375 C76.4583522 265.01280624 77.31904816 265.02951874 78.20582581 265.04673767 C79.02614792 265.06668289 79.84647003 265.08662811 80.69165039 265.10717773 C81.76087486 265.13049416 81.76087486 265.13049416 82.85169983 265.15428162 C86.00131972 265.36206535 89.12525778 265.86610825 92.25 266.3125 C92.25 249.8125 92.25 233.3125 92.25 216.3125 C86.31 216.3125 80.37 216.3125 74.25 216.3125 Z M-5.125 226.9375 C-7.23706506 230.02436432 -7.36195145 231.6407913 -6.75 235.3125 C-5.25 237.8125 -5.25 237.8125 -2.75 239.3125 C0.9217087 239.92445145 2.53813568 239.79956506 5.625 237.6875 C7.73706506 234.60063568 7.86195145 232.9842087 7.25 229.3125 C5.75 226.8125 5.75 226.8125 3.25 225.3125 C-0.4217087 224.70054855 -2.03813568 224.82543494 -5.125 226.9375 Z M-91.75 236.3125 C-91.75 246.2125 -91.75 256.1125 -91.75 266.3125 C-88.285 265.8175 -88.285 265.8175 -84.75 265.3125 C-83.23230857 265.2123763 -81.71227936 265.14033787 -80.19165039 265.10717773 C-79.37132828 265.08723251 -78.55100616 265.06728729 -77.70582581 265.04673767 C-76.84512985 265.03002518 -75.9844339 265.01331268 -75.09765625 264.99609375 C-73.74745644 264.9649221 -73.74745644 264.9649221 -72.36997986 264.93312073 C-69.51755813 264.86816163 -66.66505075 264.80899172 -63.8125 264.75 C-61.86913206 264.70676367 -59.92577252 264.66314781 -57.98242188 264.61914062 C-53.23836721 264.51253585 -48.49422709 264.41112005 -43.75 264.3125 C-43.56979163 261.40595104 -43.56979163 261.40595104 -43.75 258.3125 C-45.90124251 255.94784866 -45.90124251 255.94784866 -48.8125 254 C-52.85426935 251.00553189 -55.25126887 248.71685658 -57.625 244.3125 C-59.46589817 241.70456093 -60.78654274 240.50373685 -63.94921875 239.87597656 C-69.27081553 239.37481257 -74.57415509 239.39143313 -79.91162109 239.60205078 C-82.75 239.3125 -82.75 239.3125 -91.75 236.3125 Z M-38.75 240.3125 C-31.72892372 247.33357628 -24.50028808 251.88674174 -14.75 254.3125 C-13.76 253.9825 -12.77 253.6525 -11.75 253.3125 C-12.29269531 252.87679687 -12.83539063 252.44109375 -13.39453125 251.9921875 C-14.10996094 251.39664063 -14.82539063 250.80109375 -15.5625 250.1875 C-16.27019531 249.60742188 -16.97789062 249.02734375 -17.70703125 248.4296875 C-19.75 246.3125 -19.75 246.3125 -22.75 240.3125 C-28.03 240.3125 -33.31 240.3125 -38.75 240.3125 Z M-27.75 267.3125 C-28.07390776 277.35364048 -27.29385095 286.28376467 -20.75 294.3125 C-14.59227381 300.79354355 -8.83988623 303.44638455 0.0625 303.8125 C7.90298225 303.61274249 13.47856009 301.72679598 19.3125 296.4453125 C27.32982539 287.86009322 28.48291224 278.72519974 28.25 267.3125 C27.3734375 267.60125 26.496875 267.89 25.59375 268.1875 C8.07325578 273.49273586 -10.40699749 273.02548906 -27.75 267.3125 Z M-124.61816406 303.59472656 C-142.29971333 322.71477475 -144.08404548 346.36634952 -144.015625 371.05859375 C-144.01697698 372.80778558 -144.01892191 374.55697704 -144.02142334 376.3061676 C-144.02434414 379.93909346 -144.02017274 383.57191984 -144.01074219 387.20483398 C-143.99928942 391.84003481 -144.00596312 396.4750054 -144.01788712 401.11019802 C-144.02513772 404.70916967 -144.02280414 408.30808729 -144.01763153 411.90706062 C-144.01630697 413.61614065 -144.0179004 415.32522574 -144.02259064 417.03429985 C-144.47781718 433.14990946 -144.47781718 433.14990946 -137.75 447.3125 C-130.317857 454.69155626 -123.23669263 456.41952559 -112.91119385 456.43692017 C-112.0350946 456.43332489 -111.15899536 456.42972961 -110.25634766 456.42602539 C-109.31912872 456.42617142 -108.38190979 456.42631744 -107.41629028 456.4264679 C-104.33219045 456.4257737 -101.24815173 456.41800444 -98.1640625 456.41015625 C-96.02029453 456.40829032 -93.87652612 456.40686724 -91.73275757 456.40586853 C-86.10051285 456.40205716 -80.46829407 456.39223866 -74.83605957 456.38116455 C-69.08472037 456.37092074 -63.33337696 456.36636455 -57.58203125 456.36132812 C-46.30467429 456.35061515 -35.02734336 456.33302953 -23.75 456.3125 C-23.75 443.1125 -23.75 429.9125 -23.75 416.3125 C-29.20144531 416.27511719 -34.65289062 416.23773438 -40.26953125 416.19921875 C-43.71943291 416.1689491 -47.16928234 416.13780793 -50.61914062 416.10351562 C-56.09706022 416.04914735 -61.57487648 415.99803947 -67.05297852 415.96606445 C-71.46868419 415.94008887 -75.88404381 415.89972773 -80.29953575 415.84931374 C-81.98562001 415.832606 -83.67176417 415.8211161 -85.35791969 415.81488609 C-87.71660418 415.80528715 -90.0743955 415.77728016 -92.43286133 415.74487305 C-93.48266678 415.74702568 -93.48266678 415.74702568 -94.55368042 415.7492218 C-97.4359645 415.69307121 -99.31243531 415.63084979 -101.68241882 413.90657043 C-103.01440754 411.917697 -103.15207169 410.69480893 -103.125 408.3125 C-103.13660156 407.2915625 -103.13660156 407.2915625 -103.1484375 406.25 C-102.62923676 403.72525913 -101.7313113 402.92980017 -99.75 401.3125 C-96.71961747 401.01598447 -93.89481165 400.90291624 -90.86328125 400.92431641 C-89.95392319 400.91905945 -89.04456512 400.91380249 -88.10765076 400.90838623 C-85.0924271 400.89515314 -82.07772934 400.90394192 -79.0625 400.9140625 C-76.96321512 400.91204132 -74.86393092 400.90912951 -72.76464844 400.90536499 C-68.35621482 400.900936 -63.94796326 400.90738606 -59.53955078 400.92138672 C-53.91201596 400.93839476 -48.28491302 400.9286944 -42.65739441 400.91066933 C-38.31627208 400.89977504 -33.97525028 400.90330507 -29.63412476 400.9110527 C-27.56106515 400.91304353 -25.48799619 400.91063505 -23.41494751 400.90361404 C-9.71905212 400.86744054 1.91127867 401.61903106 14.3125 407.9375 C15.33428345 408.45691162 15.33428345 408.45691162 16.37670898 408.98681641 C30.28283887 416.35092025 38.47909538 427.96322365 44.25 442.3125 C46.23 449.2425 46.23 449.2425 48.25 456.3125 C64.09 456.3125 79.93 456.3125 96.25 456.3125 C96.26401855 450.57480225 96.26401855 450.57480225 96.27832031 444.72119141 C96.31212089 432.06843944 96.36748731 419.41585842 96.43390274 406.76323891 C96.47363727 399.09362075 96.506058 391.42410438 96.52099609 383.75439453 C96.53404172 377.06601379 96.5610801 370.37785751 96.60461307 363.68960321 C96.62716297 360.15129572 96.64291461 356.61326441 96.64188385 353.07487869 C96.64099356 349.11560743 96.67135673 345.15689644 96.70410156 341.19775391 C96.69655602 339.45634125 96.69655602 339.45634125 96.68885803 337.67974854 C96.79589969 329.28772925 98.54058212 322.72784765 102.9375 315.5625 C109.17812378 309.49054173 115.83356285 306.3155769 124.25 304.3125 C115.09246918 291.65356033 98.40077236 283.76291448 83.25 281.3125 C74.88647133 280.14893829 66.55441936 280.19564363 58.125 280.25 C56.77343917 280.25502861 55.42187652 280.25958909 54.0703125 280.26367188 C50.79682735 280.27536289 47.52343814 280.29174971 44.25 280.3125 C44.04246094 281.26769531 43.83492187 282.22289062 43.62109375 283.20703125 C40.80218609 295.36495159 36.3905035 304.9488047 26.05078125 312.58984375 C14.51732013 319.6836462 2.72757322 321.50665388 -10.47265625 319.16796875 C-23.04555399 315.88612774 -31.62232668 309.04925462 -38.2421875 298.125 C-41.34233649 292.34233868 -42.69810463 286.74726976 -43.75 280.3125 C-74.21393528 279.91363691 -102.12702815 280.51520253 -124.61816406 303.59472656 Z M116.3125 326.0625 C112.82546534 331.55722129 111.99938648 336.79699527 112.00949097 343.22850037 C112.00778212 343.88784972 112.00607327 344.54719907 112.00431263 345.2265287 C112.00104199 347.41602549 112.01198083 349.60520962 112.02294922 351.79467773 C112.02351386 353.37204481 112.02319574 354.94941241 112.02206421 356.52677917 C112.02149176 360.79486998 112.03322863 365.06284775 112.04721212 369.33091235 C112.05973743 373.79653518 112.0608914 378.26216077 112.06326294 382.72779846 C112.06947242 391.17784006 112.08587604 399.62782973 112.10596192 408.07784849 C112.12833748 417.70055321 112.13931852 427.32326045 112.14935279 436.94598472 C112.17024273 456.73485209 112.20540837 476.52367277 112.25 496.3125 C139.21437613 496.38260257 166.17873859 496.43549435 193.14318752 496.46793652 C205.66344182 496.48340081 218.18363948 496.50448208 230.70385742 496.53881836 C241.61735496 496.56873398 252.53081147 496.58807818 263.44434887 496.59476548 C269.22217676 496.59867405 274.99988728 496.60785082 280.77767754 496.62969017 C286.21867218 496.65008937 291.65950137 496.6563268 297.10053062 496.65182304 C299.09471791 496.6526467 301.08891088 496.65859179 303.08306503 496.67011642 C305.8126529 496.68511426 308.5416218 496.6814271 311.27122498 496.67326355 C312.05432665 496.68200207 312.83742832 496.6907406 313.64426035 496.69974393 C319.57266164 496.65204987 326.07360004 495.8475792 330.84749502 492.03754205 C337.4434428 484.77689716 336.54203342 475.60986392 336.5246582 466.44189453 C336.52901041 465.03676077 336.53419526 463.63162937 336.54014587 462.22650146 C336.55349299 458.42475311 336.5541193 454.62310443 336.55158257 450.82133722 C336.55050986 447.64060608 336.55540395 444.45989486 336.560188 441.27916801 C336.57126854 433.77122043 336.5717289 426.26332289 336.56567383 418.75537109 C336.55963578 411.02605044 336.57194402 403.2969119 336.5932439 395.5676223 C336.61089353 388.916853 336.61685593 382.26614149 336.61360615 375.61534965 C336.61179837 371.64962488 336.61437875 367.68403 336.62832069 363.71832657 C336.64094918 359.98686326 336.6389079 356.25568259 336.62590981 352.52422333 C336.62243859 350.51379145 336.63368513 348.50335073 336.64547729 346.49295044 C336.64861664 335.46142619 336.64861664 335.46142619 331.97508717 325.73512459 C326.36541403 320.56264764 319.46937055 320.01356807 312.17971802 320.05180359 C311.39604508 320.04797804 310.61237215 320.04415249 309.80495155 320.04021102 C307.19427982 320.02994034 304.58383047 320.03386183 301.97314453 320.0378418 C300.09511106 320.03349203 298.21707936 320.02830799 296.33905029 320.02235413 C291.24809373 320.00898113 286.15721149 320.00838359 281.06624079 320.01091743 C276.81184985 320.01198833 272.55747388 320.00710068 268.30308616 320.002312 C258.26373222 319.9912226 248.2244157 319.99077617 238.18505859 319.99682617 C227.83824037 320.00286572 217.49155814 319.9905541 207.14476311 319.9692561 C198.25197711 319.9516261 189.35923433 319.94564097 180.4664315 319.94889385 C175.159327 319.95070467 169.8523195 319.9480905 164.54523087 319.93417931 C159.55307986 319.92158293 154.56114046 319.92356225 149.56899261 319.93659019 C147.74090121 319.93895161 145.91279483 319.93623694 144.08472061 319.92796707 C129.00099063 319.23194833 129.00099063 319.23194833 116.3125 326.0625 Z M-7.75 417.3125 C-7.75 430.1825 -7.75 443.0525 -7.75 456.3125 C5.12 456.3125 17.99 456.3125 31.25 456.3125 C26.35428203 440.40141659 20.17356828 430.32786767 6.265625 421.671875 C1.8052138 419.66122332 -3.02975181 418.59984041 -7.75 417.3125 Z M-7.75 472.3125 C-7.84281777 482.28926688 -7.84281777 482.28926688 -3.4609375 490.921875 C2.45128286 496.29662078 9.5756893 496.60758142 17.12280273 496.53955078 C17.98213913 496.53984283 18.84147552 496.54013489 19.72685242 496.54043579 C22.54587163 496.53905086 25.36462114 496.52352931 28.18359375 496.5078125 C30.14656937 496.50407939 32.10954687 496.50123383 34.07252502 496.49923706 C39.22310589 496.49162407 44.37357283 496.47199569 49.52410889 496.4498291 C54.78623921 496.42932031 60.04838805 496.4202246 65.31054688 496.41015625 C75.62375586 496.38874752 85.9368506 496.35358447 96.25 496.3125 C96.25 488.3925 96.25 480.4725 96.25 472.3125 C61.93 472.3125 27.61 472.3125 -7.75 472.3125 Z " fill="#3398DB" transform="translate(159.75,-0.3125)"/>
<path d="M0 0 C8.80288754 6.34043826 15.4186507 14.72648904 17.58203125 25.4921875 C18.92007691 37.90936834 17.85729499 48.88109459 10.39453125 59.2421875 C3.58210875 67.3274193 -4.72289951 73.55522767 -15.48876953 74.71533203 C-28.40007937 75.61089799 -39.16843729 74.04490094 -49.3515625 65.46484375 C-57.86959925 57.33325857 -62.42046403 48.68416257 -62.88867188 36.85693359 C-63.04371176 24.34263074 -60.22647828 14.71931927 -51.41796875 5.4921875 C-37.63784493 -7.66275112 -16.31305228 -10.17259803 0 0 Z M-41.97265625 21.39453125 C-46.0977477 27.38148831 -46.13405017 33.44153962 -45.41796875 40.4921875 C-43.64454442 47.13691664 -38.97130405 51.66586709 -33.41796875 55.4921875 C-27.41909871 58.43281007 -20.53513345 58.59102538 -14.10546875 56.875 C-7.97664014 54.16969675 -3.17844083 49.08355055 -0.24609375 43.1015625 C1.66008982 37.09528598 1.64641812 29.98927192 -0.91796875 24.1796875 C-4.40259013 18.23971013 -9.85252705 13.57583067 -16.41796875 11.4921875 C-27.85241972 10.13582504 -34.59614364 12.76572696 -41.97265625 21.39453125 Z " fill="#3398DB" transform="translate(406.41796875,373.5078125)"/>
</svg>
